<?xml version="1.0" standalone="no"?>
<!DOCTYPE svg PUBLIC "-//W3C//DTD SVG 20010904//EN"
 "http://www.w3.org/TR/2001/REC-SVG-20010904/DTD/svg10.dtd">
<svg version="1.0" xmlns="http://www.w3.org/2000/svg"
 width="32.000000pt" height="32.000000pt" viewBox="0 0 32.000000 32.000000"
 preserveAspectRatio="xMidYMid meet">

<g transform="translate(0.000000,32.000000) scale(0.100000,-0.100000)"
fill="#000000" stroke="none">
<path d="M90 160 c0 -73 3 -90 15 -90 10 0 15 11 15 35 0 49 34 49 57 0 11
-22 24 -35 36 -35 18 0 18 1 -2 36 -20 33 -20 38 -6 54 40 44 7 90 -66 90
l-49 0 0 -90z m85 56 c27 -19 13 -46 -25 -46 -25 0 -30 4 -30 23 0 39 21 48
55 23z"/>
</g>
</svg>
