<svg width="800" height="800" viewBox="0 0 24 24" fill="none" xmlns="http://www.w3.org/2000/svg"><path d="M11 3h6a2 2 0 0 1 2 2v14a2 2 0 0 1-2 2H5a2 2 0 0 1-2-2V5a2 2 0 0 1 2-2h6Z" stroke="#262626" stroke-width="1" stroke-linecap="round" stroke-linejoin="round"/><path d="M11 3h9a2 2 0 0 1 2 2v14a2 2 0 0 1-2 2h-9" stroke="#262626" stroke-width="1" stroke-linecap="round" stroke-linejoin="round"/><path d="M14 12a3 3 0 1 1-6 0 3 3 0 0 1 6 0Z" stroke="#262626" stroke-width="1"/><path d="M7 21c.425-2.307 1.52-3 4-3s3.575.642 4 2.95" stroke="#262626" stroke-width="1" stroke-linecap="round"/></svg>