<svg fill="#262626" version="1.0" xmlns="http://www.w3.org/2000/svg" width="1376" height="1032" viewBox="0 0 1032 774">




  <path d="M537.3 169.7c-1 .4-1.3 11.7-1.3 51.8v51.4l2.2 1.2c1.2.6 5.1 1.3 8.7 1.6 11.8.7 12.9 1.1 19 6.7 3.1 2.9 8.6 7.2 12.2 9.6 15 10.2 25.2 19.7 37.1 34.7 9 11.3 13.8 21.6 13.8 29.9 0 3.4-6.3 24.5-12.9 43.6-3.1 8.9-3.9 12.2-3.2 14 .5 1.3 7.7 9.3 16 18 8.3 8.6 15.1 16.1 15.1 16.7 0 1.8-2.3 1.3-11.9-2.4-4.9-1.9-9.7-3.5-10.6-3.5-2.7 0-2.7.2 10.9 44 3.6 11.5 4 13.9 2.3 14.6-.8.3-10.4-3.3-21.3-7.9-11-4.7-20.7-8.7-21.6-9.1-2.5-.8-2.3 2.2.7 10.6 2.4 6.7 3.2 11.8 1.8 11.8-.3 0-2-1.1-3.7-2.4-4-3-11.1-6.6-13.1-6.6-.9 0-3.4.9-5.6 2.1-6.6 3.3-5.5 5.7 7.6 15.8 17.4 13.4 27 23.7 33.3 35.9 2.9 5.6 5.8 10.4 6.3 10.7 1.2.8 9.4-4.2 23.5-14.2 12.5-8.8 32.8-28.6 42-40.8 21.2-28.3 33.5-55.1 39.9-87 12-59.8-1.2-118.2-38-168.7-12.2-16.7-37.1-39.4-56.5-51.5-24.3-15.1-54.1-26.1-79.5-29.3-4.9-.6-9.7-1.3-10.5-1.5-.8-.2-2.1-.1-2.7.2" fill="#262626"/>

  <!-- Metade Direita (Preta) com Espaçamento Aumentado -->
  <path d="M520 169.7c1 .4 1.3 11.7 1.3 51.8v51.4l-2.2 1.2c-1.2.6-5.1 1.3-8.7 1.6-11.8.7-12.9 1.1-19 6.7-3.1 2.9-8.6 7.2-12.2 9.6-15 10.2-25.2 19.7-37.1 34.7-9 11.3-13.8 21.6-13.8 29.9 0 3.4 6.3 24.5 12.9 43.6 3.1 8.9 3.9 12.2 3.2 14-.5 1.3-7.7 9.3-16 18-8.3 8.6-15.1 16.1-15.1 16.7 0 1.8 2.3 1.3 11.9-2.4 4.9-1.9 9.7-3.5 10.6-3.5 2.7 0 2.7.2-10.9 44-3.6 11.5-4 13.9-2.3 14.6.8.3 10.4-3.3 21.3-7.9 11-4.7 20.7-8.7 21.6-9.1 2.5-.8 2.3 2.2-.7 10.6-2.4 6.7-3.2 11.8-1.8 11.8.3 0 2-1.1 3.7-2.4 4-3 11.1-6.6 13.1-6.6.9 0 3.4.9 5.6 2.1 6.6 3.3 5.5 5.7-7.6 15.8-17.4 13.4-27 23.7-33.3 35.9-2.9 5.6-5.8 10.4-6.3 10.7-1.2.8-9.4-4.2-23.5-14.2-12.5-8.8-32.8-28.6-42-40.8-21.2-28.3-33.5-55.1-39.9-87-12-59.8 1.2-118.2 38-168.7 12.2-16.7 37.1-39.4 56.5-51.5 24.3-15.1 54.1-26.1 79.5-29.3 4.9-.6 9.7-1.3 10.5-1.5.8-.2 2.1-.1 2.7" fill="#262626"/>

</svg>