<svg xmlns="http://www.w3.org/2000/svg" width="700" height="700" style="fill:currentColor"><path style="fill:#262626;stroke-width:2.82969952" d="M479.388 164.582a1.718 1.718 0 0 0-1.464.674L359.303 313.534a1.774 1.774 0 0 0 1.387 2.885h85.714a7.577 7.577 0 0 0 5.942-2.858l27.08-33.84a7.672 7.672 0 0 0 1.67-4.759v-108.6c0-1.044-.83-1.734-1.708-1.78zm-275.796.011c-.877.045-1.702.725-1.702 1.769v108.6c0 1.727.593 3.4 1.669 4.76l89.108 111.374a7.577 7.577 0 0 0 5.94 2.858h85.71c1.5 0 2.32-1.725 1.387-2.885L205.057 165.256a1.74 1.74 0 0 0-1.465-.663z"/><path d="M569.9 470.584h20.082l.065 61.485c0 .79.643 1.44 1.44 1.44l11.502-.008c.797 0 1.44-.643 1.44-1.44l-.066-61.477h25.183c.74 0 1.164-.862.692-1.44l-8.622-10.786a3.807 3.807 0 0 0-2.97-1.431H569.9c-.797 0-1.44.642-1.44 1.44v10.785c0 .781.643 1.432 1.44 1.432M85.221 532.077l58.908-73.71c.463-.578.048-1.44-.692-1.44h-14.73a3.795 3.795 0 0 0-2.97 1.431l-41.793 52.286v-52.286c0-.797-.642-1.44-1.44-1.44h-11.5c-.798 0-1.44.643-1.44 1.44v73.711c0 .798.642 1.44 1.44 1.44h11.249a3.807 3.807 0 0 0 2.968-1.432m41.533 0 20.262-25.353 20.262 25.353a3.81 3.81 0 0 0 2.977 1.432h11.25c.797 0 1.44-.642 1.44-1.44v-73.71c0-.79-.643-1.44-1.44-1.44h-9.436a7.622 7.622 0 0 0-5.946 2.855l-57.768 72.287c-.464.578-.049 1.44.691 1.44h14.731a3.779 3.779 0 0 0 2.977-1.424m41.801-53.855v33.96l-13.567-16.976zm328.918 53.84-58.907-73.712a3.807 3.807 0 0 0-2.969-1.431H424.34c-.797 0-1.44.642-1.44 1.44v73.71c0 .798.643 1.44 1.44 1.44h11.25a3.795 3.795 0 0 0 2.968-1.432l20.262-25.353 20.262 25.353a3.807 3.807 0 0 0 2.969 1.432h14.73c.741 0 1.156-.862.692-1.448m-46.632-36.855-13.576 16.984v-33.968Zm-162.105-40.199c-22.206 0-40.206 18-40.206 40.207 0 22.206 18 40.207 40.206 40.207 22.206 0 40.207-18.001 40.207-40.207.008-22.206-18-40.207-40.207-40.207m0 66.748c-14.267 0-25.825-11.884-25.825-26.541 0-14.658 11.558-26.55 25.825-26.55 14.268 0 25.826 11.884 25.826 26.55.008 14.657-11.558 26.541-25.826 26.541m255.354-63.397v52.286l-41.793-52.294a3.807 3.807 0 0 0-2.97-1.431h-11.265c-.789 0-1.44.642-1.44 1.44v35.52c0 .863.293 1.7.838 2.376l11.965 14.975c.53.659 1.587.285 1.587-.553v-30.91l41.8 52.31a3.807 3.807 0 0 0 2.97 1.432h11.249c.797 0 1.44-.643 1.44-1.44v-73.71c0-.79-.643-1.44-1.44-1.44H545.53c-.797 0-1.44.65-1.44 1.44m-140.524 15.975v-15.976c0-.797-.642-1.44-1.44-1.44H343.26c-.797 0-1.44.643-1.44 1.44v73.711c0 .797.643 1.44 1.44 1.44h11.502c.797 0 1.44-.643 1.44-1.44v-61.477h32.983l-22.263 27.867a1.454 1.454 0 0 0 0 1.798l25.435 31.829a3.807 3.807 0 0 0 2.97 1.431h14.73c.74 0 1.155-.862.692-1.44l-26.143-32.707 18.122-22.645c.537-.691.838-1.53.838-2.391m-201.912 59.175h34.13a3.795 3.795 0 0 0 2.97-1.432l8.622-10.793c.463-.578.048-1.44-.692-1.44h-32.089v-61.486c0-.797-.642-1.44-1.44-1.44h-11.501c-.797 0-1.44.643-1.44 1.44v73.711c0 .79.65 1.44 1.44 1.44" style="fill:#262626;stroke-width:.81340861"/></svg>