<svg width="607" height="727" fill="none" xmlns="http://www.w3.org/2000/svg"><path d="m219.23 243.95 9.1-9.1c39.93-5.05 67.5-12 82.66-20.85 15.17-8.84 22.75-19.34 22.75-31.47v-.76c0-8.59-3.79-15.66-11.38-21.23-7.58-5.55-18.71-8.34-33.37-8.34-14.66 0-31.61 4.3-50.81 12.89-19.22 8.61-38.18 20.23-56.88 34.89L99.39 77.13c24.27-21.73 53.34-39.93 87.21-54.6C220.47 7.87 260.41.54 306.42.54c28.31 0 54.34 3.79 78.11 11.38 23.76 7.58 44.37 18.46 61.81 32.61 17.44 14.16 30.96 31.09 40.58 50.81 9.6 19.72 14.41 41.71 14.41 65.98v1.52c0 23.77-3.54 44.37-10.62 61.81-7.09 17.44-17.06 32.49-29.95 45.12-12.89 12.64-28.32 23.39-46.26 32.23-17.95 8.85-37.8 16.3-59.53 22.37l-9.1 50.81H240.46l-21.23-131.2v-.03Zm-16.68 160.02h175.94v136.51H202.55V403.97Z" fill="#5E70FF"/><mask id="a" style="mask-type:luminance" maskUnits="userSpaceOnUse" x="13" y="29" width="594" height="698"><path d="M606.22 29h-593v698h593V29Z" fill="#fff"/></mask><g mask="url(#a)"><path d="M448.84 699v291.54h-53l-20.43-293.73 47.83 1.42 25.6.77Z" fill="#323244"/><path d="M448.84 699v291.54h-14.15l-11.71-291.98.26-.32 25.6.77V699Z" fill="#1F1F35"/><path d="M358.18 699v291.54h-53l-20.44-293.73 47.83 1.42 25.61.77Z" fill="#323244"/><path d="M358.18 699v291.54h-14.15l-.23-5.89-11.48-286.1.26-.32 25.6.77Z" fill="#1F1F35"/><path d="M530.27 413.61c-4.57 3.41-10.62 6.39-18.44 8.66-3.84 1.12-8.1 2.08-12.82 2.83 6.26-1.14 10.58-2.28 12.81-2.94 1.15-.33 1.73-.54 1.73-.54-1.43-6.63-3.11-12.34-4.94-17.26-3.72-10.01-8.09-16.72-12.35-21.24-9.65-10.22-18.79-9.1-18.79-9.1l-7.46-7.46s-.85 4.51-1.98 12.61c-.92 6.61-2.02 15.61-3 26.52-.62 6.87-1.18 14.48-1.61 22.74-.53 10.1-.86 21.15-.86 32.93v241.45H258.75l35.85-287.84 1.08-8.64s.02-.08 0-.17v-.02c-.17-1.7-4.43-13.73-9.03-26.38-5.54-15.21-11.57-31.31-11.57-31.31s-38.71 38.34-53.97 51.84c-.37.32-.74.65-1.1.96-8.2 7.06-15.47 11.13-24.12 13.21 3.52-3.52 3.65-11.5.83-20.26-2.23-6.97-6.34-14.44-12.08-20.55-12.31-13.1-25.36-6.43-26.62-5.73l24.76-15.57s38.77-32.81 67.93-90.77c6.06-12.03 15.03-22.35 26.17-29.92 8.2-5.58 19.27-12.73 33.46-21.15 2.95-1.75 6.04-3.55 9.26-5.42.67-.39 1.34-.77 2.01-1.16l2.09-4.47c1.19.3 2.41.51 3.66.63.32 21.49 21.43 46.25 22.74 47.77.02.03.04.05.05.06.01.01.02 0 .02.02l.16-.23.23-.33 28.4-41.73 14.34-21.05-7.03-8.34v-2.69h8.24v.02L409.76 194s3.98 1.83 10.01 4.66c16.27 7.65 47.49 22.69 56.29 29.42 12.06 9.23 63.2 141.31 66.03 157.29 1.68 9.41-.83 20.05-11.81 28.22l-.01.02Z" fill="#fff"/><path d="M313 275.1c-.64 2.44-14.4 55.2-17.31 131.06-.17-1.7-4.43-13.73-9.03-26.38 9.7-58.68 25.56-102.51 26.35-104.68H313Z" fill="#D3E0DD"/><path d="M195.89 414.48s-.12.04-.34.09h-.04c-3.6.96-32.38 7.83-60.55-9.81 0 0-5.77 11.4-17.44 9.57 0 0-6.61 5.63-14.78 0 0 0-8.3 2.67-10.13-6.33 0 0-10.7 2.67-13.37-10.41 0 0-7.88 3.94-12.95 3.94-2.16 0-3.9-1.81-4.76-5.17-.53-2.08-.71-4.74-.44-7.94.68-7.78 6.36-14.22 13.95-16.09 9.7-2.38 23.36-5.61 29.94-6.56 10.84-1.55 19.84 5.63 19.84 5.63s31.54.19 33.08-3.42c0 0 .02 0 .05-.03.02 0 .03-.02.06-.03h.04s.03 0 .05-.02c1.66-.89 14.46-7.1 26.54 5.77 12.95 13.79 17.59 34.48 11.26 40.81h-.01Z" fill="#F5934F"/><path d="M195.89 414.48s-.12.04-.34.09h-.04c-3.6.96-32.38 7.83-60.55-9.81 0 0-5.77 11.4-17.44 9.57 0 0-6.61 5.63-14.78 0 0 0-8.3 2.67-10.13-6.33 0 0-10.7 2.67-13.37-10.41 0 0-7.88 3.94-12.95 3.94-2.16 0-3.9-1.81-4.76-5.17 4.65 0 49.59-.04 74.28 2.22 26.05 2.36 53.52-5.21 53.52-5.21-7.46-34.75-29.7-26.11-31.23-25.47 1.66-.89 14.46-7.1 26.54 5.77 12.95 13.79 17.59 34.48 11.26 40.81h-.01Z" fill="#EA6044"/><path d="m386.25 176.27 7.03 8.34-14.34 21.05-28.79 42.3-.02-.02s-.03-.04-.05-.06c-.11-.13-.36-.42-.72-.85-.11-.14-.25-.3-.39-.47-.45-.54-.99-1.22-1.63-2.04-.32-.41-.65-.84-1.01-1.31-.17-.22-.34-.45-.52-.7-.24-.32-.49-.65-.75-1-1.7-2.3-3.66-5.13-5.66-8.31-.18-.28-.35-.57-.53-.85-.35-.57-.7-1.16-1.06-1.75-.36-.59-.71-1.21-1.06-1.82-.18-.31-.34-.61-.52-.93-.7-1.24-1.37-2.52-2.02-3.83-.17-.33-.33-.66-.49-.99-.16-.32-.32-.66-.47-.99a79.17 79.17 0 0 1-2.98-7.18c-.08-.22-.16-.45-.23-.68-.07-.19-.14-.39-.19-.58-.12-.34-.23-.69-.33-1.03-.15-.46-.29-.94-.42-1.4-.06-.23-.13-.45-.19-.68a46.753 46.753 0 0 1-1.28-6.45c-.05-.28-.07-.57-.1-.84-.11-1.04-.17-2.07-.19-3.09a25.084 25.084 0 0 1-6.6-1.56c-9.44-3.63-16.14-12.79-16.14-23.51v-86.3h49.72c1.28 0 2.53.1 3.76.3a23.76 23.76 0 0 1 15.5 9.52c2.86 3.92 4.53 8.74 4.53 13.97v11.51c1.55-3.61 5.5-9.54 14.38-7.6 12.51 2.74 3.39 27.89-6.25 32.59v27.24h.01Z" fill="#F5934F"/><path d="M386.25 149.04c9.64-4.69 18.76-29.85 6.25-32.59-8.88-1.94-12.83 4-14.38 7.6v-11.51c0-5.23-1.68-10.05-4.53-13.97-9.31 3.35-15.5 6.37-15.5 6.37v71.54l-30.73 23.63s23.32 3.77 39.48-9.34l12.12 14.88 14.34-21.05-7.03-8.34v-27.24l-.02.02Z" fill="#EA6044"/><path d="M392.5 116.45c-8.88-1.94-12.83 4-14.38 7.6v31.9c0 1.8-.11 3.57-.32 5.31a43.512 43.512 0 0 1-5.52 16.66c-7.63 13.33-22 22.3-38.45 22.3h-4.05c-.83 0-1.63-.04-2.44-.12-1.25-.12-2.48-.33-3.66-.63-.3-.07-.6-.16-.89-.24-.32-.09-.64-.19-.96-.3-.27-.08-.53-.18-.79-.28-.1-.04-.2-.07-.31-.11-1.32-.51-2.59-1.12-3.79-1.84-7.39-4.39-12.34-12.44-12.34-21.66v-11.23l2.66-7.89h35.91l2.7 7.07 2.11 5.52 18.2-11.59v-47.17l-8.1-4.8V89.06c-1.22-.19-2.48-.3-3.76-.3H304.6c-3.89-6.66-.9-19.87 14.53-27.64 7.26-3.65 17.29-6.11 30.64-6.11 41.73 0 43.56 23.84 43.56 23.84 31.6 19.68-.77 79.33-7.08 90.27v-20.08c9.64-4.69 18.76-29.85 6.25-32.59Z" fill="#323244"/><path d="M384.05 121.25v22.01s9.24-6.04 10.01-17.09c.78-11.05-10.01-4.92-10.01-4.92Z" fill="#33022D"/><path d="M465.03 405.71c-.05.56-.1 1.12-.15 1.7-.07.85-.15 1.72-.22 2.59a645 645 0 0 0-1.01 14.4c-.04.56-.06 1.12-.1 1.69-.05.78-.08 1.57-.13 2.36-.06 1.26-.13 2.54-.19 3.83-.04.83-.07 1.66-.11 2.5l-.06 1.42a526.263 526.263 0 0 0-.31 9.6c-.03 1.26-.06 2.53-.08 3.81 0 .55-.02 1.09-.03 1.65-.02 1.18-.04 2.37-.05 3.57-.02 1.44-.03 2.88-.03 4.35V702.83H258.75l35.85-287.84 1.08-8.64s.02-.08 0-.17v-.02c2.91-75.85 16.67-128.62 17.31-131.06 0-.02 0-.04.02-.05v-.04l3.34-36.62 7.32-1.68-.21 2.96-2.53 35.34h79.15l1-35.37.4-14.11 5.69-15.63.21 12.39.11 6.36.79 46.36c3.2 28.13 8.74 50.62 15.26 68.53.92 2.5 1.85 4.92 2.79 7.25 13.35 32.81 29.76 48.39 38.7 54.92Z" fill="#4C9CA3"/><path d="M386.25 149.04v20.08c6.31-10.94 38.68-70.6 7.08-90.27l-33.51 14.64 6.37 16.27v47.17l-18.2 11.59s2.52 36.4-31.03 28.21a25.173 25.173 0 0 0 10.39 3.39c.81.08 1.61.12 2.44.12h4.05c16.45 0 30.81-8.98 38.45-22.3 2.88-5.02 4.8-10.65 5.52-16.66.2-1.74.32-3.51.32-5.31v-31.9c1.55-3.61 5.5-9.54 14.38-7.6 12.51 2.74 3.39 27.89-6.25 32.59l-.01-.02ZM349.77 55c-13.35 0-23.38 2.46-30.64 6.11 13.85-.05 36.93 3.19 38.81 25.03l35.38-7.3S391.49 55 349.76 55h.01Z" fill="#1F1F35"/><path d="M350.08 247.88c-.11-.13-.36-.42-.72-.85-.12-.14-.25-.3-.39-.47-.45-.54-.99-1.22-1.63-2.04-.32-.41-.66-.84-1.01-1.31-.17-.22-.34-.45-.52-.7-.24-.32-.49-.66-.75-1-1.7-2.3-3.66-5.13-5.66-8.31-.18-.28-.35-.57-.53-.85-.35-.57-.71-1.16-1.06-1.75-.36-.59-.71-1.21-1.06-1.82-.18-.31-.34-.61-.52-.93-.7-1.24-1.37-2.52-2.02-3.83-.17-.33-.33-.66-.49-.99-.16-.32-.32-.66-.47-.99a79.17 79.17 0 0 1-2.98-7.18c-.08-.22-.16-.45-.23-.68-.07-.19-.14-.39-.19-.58-.12-.34-.23-.69-.33-1.03-.15-.46-.29-.94-.42-1.4-.06-.23-.13-.45-.19-.68a46.753 46.753 0 0 1-1.28-6.45c-.05-.28-.07-.57-.1-.84-.11-1.04-.17-2.07-.19-3.09.81.08 1.61.12 2.44.12h3.16c.31 6.87 2.48 27.74 17.14 47.65Z" fill="#EA6044"/><path d="m48.849 382.495 23.837-8.479a1.208 1.208 0 0 1 1.545.735l2.028 5.7a1.207 1.207 0 0 1-.735 1.545l-23.837 8.479a1.208 1.208 0 0 1-1.545-.735l-2.028-5.7a1.207 1.207 0 0 1 .735-1.545Z" fill="#FFC741"/><path d="m99.402 377.839-25.29.711a1.21 1.21 0 0 0-1.175 1.243l.17 6.048a1.21 1.21 0 0 0 1.243 1.176l25.29-.711a1.21 1.21 0 0 0 1.175-1.244l-.17-6.047a1.21 1.21 0 0 0-1.243-1.176Z" fill="#1F1F35"/><path d="m99.368 377.006 24.966 4.092a1.21 1.21 0 0 1 .999 1.39l-.979 5.971a1.209 1.209 0 0 1-1.39.998l-24.967-4.093a1.208 1.208 0 0 1-.998-1.39l.979-5.97a1.207 1.207 0 0 1 1.39-.998ZM93.972 385.848l-24.88-4.593a1.21 1.21 0 0 0-1.409.97l-1.098 5.95a1.21 1.21 0 0 0 .97 1.409l24.88 4.593a1.21 1.21 0 0 0 1.41-.97l1.098-5.949a1.21 1.21 0 0 0-.97-1.41Z" fill="#323244"/><path d="M57.55 398.89h91.88l30.05-13.88H30.34l27.21 13.88Z" fill="#DDCBE5"/><path d="M220.01 401.27c-5.73 4.93-11.02 8.41-16.63 10.77a50.899 50.899 0 0 1-7.5 2.45c2.03-2.03 2.94-5.55 2.79-9.85 0-.21 0-.43-.03-.64-.02-.36-.05-.72-.08-1.09-.04-.45-.09-.9-.16-1.36a37 37 0 0 0-.21-1.41c0-.04-.02-.08-.02-.12-.08-.44-.17-.87-.26-1.32-.1-.48-.21-.97-.34-1.47-.13-.53-.28-1.07-.44-1.6-.13-.46-.27-.93-.43-1.4-2.23-6.97-6.34-14.44-12.08-20.55-12.31-13.1-25.36-6.43-26.62-5.73l24.76-15.57s23.29 4.04 33.05 28.07c2.35 5.73 3.9 12.6 4.19 20.83l.01-.01Z" fill="#323244"/><path d="M496.65 363.09s-.13 7.4-.4 20.04c-9.65-10.22-18.79-9.1-18.79-9.1l-7.46-7.46s-.85 4.51-1.98 12.61c-.92 6.61-2.02 15.61-3 26.52-9.57-6.99-27.71-24.37-41.49-62.17 4.63-42.66 11.76-66.43 11.76-66.43l7.1 14.92c9.71-66.05 25.57-64.16 25.57-64.16-12.55 1.42-25.57 73.63-20.83 80.25 4.73 6.63 35.98 58.24 35.98 58.24l13.53-3.26h.01Z" fill="#D3E0DD"/><path d="M465.03 405.71c-.05.56-.1 1.12-.15 1.7-.07.85-.15 1.72-.22 2.59a645 645 0 0 0-1.01 14.4c-.04.56-.07 1.12-.1 1.69-.05.78-.08 1.57-.13 2.36-.06 1.26-.13 2.54-.19 3.83-.04.83-.07 1.66-.11 2.5l-.06 1.42a517.74 517.74 0 0 0-.31 9.6c-.04 1.26-.06 2.53-.08 3.81 0 .55-.02 1.09-.03 1.65-.02 1.18-.04 2.37-.05 3.57-.02 1.44-.03 2.88-.03 4.35V702.83h-35.13c-.92-27.01-2.34-70.13-3.65-116.84h10.55l2.3-114.18h-15.55c-.79-46.63-.94-85.94.26-103.31.61-8.91 1.37-17.24 2.21-24.94 13.78 37.8 31.92 55.18 41.49 62.17l-.01-.02Z" fill="#28878D"/><path d="M513.55 421.62s-5.04 1.75-14.54 3.48c-8.46 1.55-20.47 3.08-35.59 3.35-17.21.32-38.47-1.01-63.19-5.8 0 0-7.13 7.12-23.43 7.89-16.3.76-38.2-14.51-38.2-14.51s-25.46-3.57-30.05-7.64h45.23l7.82-7.83h-14.35s-1.23-5.72 12.36-8.74c8.67-1.92 19.99-3.88 27.08-5.04 4.29-.7 8.7.14 12.42 2.4l1.54.93s42.3-.59 67.4-10.92c1.45-.59 2.83-1.21 4.15-1.88 1.88-.94 3.63-1.95 5.19-3.03l.1-.24s18.98-2.34 31.14 30.33c1.84 4.91 3.51 10.63 4.94 17.26l-.02-.01Z" fill="#F5934F"/><path d="m346.45 349.77.35-3.79h-50.28l4.71 50.9c.08.84.3 1.65.62 2.39a7.673 7.673 0 0 0 7.02 4.58h25.58c3.96 0 7.28-3.02 7.64-6.97l.06-.6c.57.05 1.14.07 1.72.07 12.88 0 23.36-10.48 23.36-23.37 0-12.01-9.11-21.92-20.78-23.21Zm-2.58 38.55c-.33 0-.66-.02-.98-.04l2.82-30.52c7.59.92 13.49 7.39 13.49 15.22 0 8.46-6.87 15.34-15.33 15.34Z" fill="#FFC741"/><path d="M530.27 413.61c-.29.21-.57.43-.87.63-.28.19-.55.38-.83.57-.7.47-1.44.94-2.21 1.39-.27.16-.54.31-.82.46-.33.19-.67.37-1.01.56 0 0-.03.02-.05.02-.35.19-.71.38-1.08.57a58.04 58.04 0 0 1-4.03 1.84c-.31.13-.62.26-.94.38-.63.25-1.28.5-1.94.73-.32.12-.66.24-1 .35-.26.09-.53.19-.81.28-.46.15-.93.3-1.4.45-.47.15-.96.3-1.45.44-3.84 1.12-8.1 2.08-12.82 2.83 6.26-1.14 10.58-2.28 12.81-2.94 1.15-.33 1.73-.54 1.73-.54-1.43-6.63-3.11-12.33-4.94-17.25-12.16-32.68-31.14-30.34-31.14-30.34l19.19-10.94s21.53 3.68 30.15 29.48c1.95 5.81 3.24 12.76 3.47 21.04l-.01-.01Z" fill="#323244"/><path d="m419.76 198.68-8.21 20.06-4.06 9.92-3.78 9.25-.92 2.23-1.72-.49-28.08-8.06-22.69 16.14-.22.16.45-.49 20.13-22.01 28.24 8.55 10.84-39.91s3.98 1.83 10.01 4.66l.01-.01Z" fill="#D3E0DD"/><path d="m393.28 184.61-7.03-8.34v-2.69h8.24v.02c.18.39 2.51 5.79-1.22 11.01h.01Z" fill="#33022D"/><path d="m348.28 249.59-25.24-9.28-22.61 5.65 9.89-35.42c2.95-1.75 6.04-3.55 9.26-5.42.67-.39 1.34-.77 2.01-1.16l-17.13 37.16 19.2-4.4 24.61 12.87h.01ZM275.08 348.47s-38.71 38.34-53.97 51.84c-.37.32-.74.65-1.1.96-.29-8.23-1.85-15.1-4.19-20.83 29.44-23.57 48.69-49.87 48.69-49.87-11.15-51.66 2.06-84.25 2.06-84.25-11.16 41.39 8.51 102.14 8.51 102.14v.01Z" fill="#D3E0DD"/><path d="M220.01 401.27c-5.73 4.93-11.02 8.41-16.63 10.77-.78.33-1.57.64-2.36.91-1.67.6-3.38 1.11-5.14 1.54 2.03-2.03 2.94-5.55 2.79-9.85 0-.21 0-.43-.03-.64-.02-.36-.05-.72-.08-1.09-.04-.45-.09-.91-.16-1.36a37 37 0 0 0-.21-1.41c0-.04-.02-.08-.02-.12-.08-.44-.17-.87-.26-1.32-.1-.48-.22-.97-.34-1.47-.13-.53-.28-1.07-.44-1.6-.13-.46-.28-.93-.43-1.4 6.74-4.32 13.13-8.99 19.1-13.78 2.35 5.73 3.9 12.6 4.19 20.83l.02-.01Z" fill="#1F1F35"/><path d="M513.55 421.62s-5.04 1.75-14.54 3.48c-8.46 1.55-20.47 3.08-35.59 3.35-17.21.32-38.47-1.01-63.19-5.8 58.72 4.99 97.37-12.47 108.38-18.28 1.84 4.91 3.51 10.63 4.94 17.26v-.01Z" fill="#EA6044"/><path d="M400.23 422.64s-7.13 7.12-23.43 7.89c-16.3.76-38.2-14.51-38.2-14.51s-25.46-3.57-30.05-7.64h45.23s10.25.57 18.29-2.03c0 0-9.39 6-19.92 7.93 0 0 11.99 3.96 20.82 2.6 0 0-6.68 1.93-11.42 2.38 0 0 9.83 16.51 38.7 3.38h-.02Z" fill="#EA6044"/><path d="M530.27 413.61c-.23-8.28-1.52-15.23-3.47-21.04 2.98-3.37 4.76-7.3 3.58-11.6-3.68-13.51-72.06-143.72-72.06-143.72l-51.18-16.78-28.2-14.81 14.34-21.05-7.03-8.34v-2.69h8.24v.02l15.25 20.41s3.98 1.83 10.01 4.66c16.27 7.65 47.49 22.69 56.29 29.42 12.06 9.23 63.2 141.31 66.03 157.29 1.68 9.41-.83 20.05-11.81 28.22l.01.01Z" fill="#D3E0DD"/><path d="M530.27 413.61c-.29.21-.57.43-.87.63-.28.19-.55.38-.83.57-.7.47-1.44.94-2.21 1.39-.27.16-.54.31-.82.46-.33.19-.67.37-1.01.56 0 0-.03.02-.05.02-.35.19-.71.38-1.08.57a58.04 58.04 0 0 1-4.03 1.84c-.31.13-.62.26-.94.38-.63.25-1.28.5-1.94.73-.32.12-.66.24-1 .35-.26.09-.53.19-.81.28-.46.15-.93.3-1.4.45-.47.15-.96.3-1.45.44l-.02-.11-3.21-17.79s11.82-4.6 18.19-11.8c1.95 5.81 3.24 12.76 3.47 21.04l.01-.01Z" fill="#1F1F35"/><path d="M326.18 240.39v34.63h-5.25l2.53-35.34 2.72.71ZM430.77 342.69s-1.94 4.01-4.43 8.1c-.95-2.33-1.87-4.75-2.79-7.25-6.53-17.91-12.06-40.39-15.26-68.53l-.79-46.36 4.06-9.92c.07 10.55 1.27 90.8 19.21 123.95v.01Z" fill="#D3E0DD"/><path d="M399.09 286.98h-77.62a.87.87 0 0 0-.87.87v4.34c0 .48.389.87.87.87h77.62a.87.87 0 0 0 .87-.87v-4.34a.87.87 0 0 0-.87-.87Z" fill="#1F1F35"/><path d="M405.55 294.15s7.18 41.61 20.31 69.6l-2.23 13.37s-15.11-36.66-18.08-82.97Z" fill="#28878D"/><path d="m346.45 349.77.35-3.79h-9.84l-3.21 42.86a11.282 11.282 0 0 1-11.25 10.44h-20.65a7.673 7.673 0 0 0 7.02 4.58h25.57c3.97 0 7.28-3.02 7.65-6.97l.06-.6c.57.05 1.14.07 1.72.07 12.88 0 23.36-10.48 23.36-23.37 0-12.01-9.11-21.92-20.78-23.21v-.01Zm-2.58 38.55c-.33 0-.66-.02-.98-.04l2.82-30.52c7.59.92 13.49 7.39 13.49 15.22 0 8.46-6.87 15.34-15.33 15.34Z" fill="#F5934F"/><path d="M283.27 400.55h78.32l-7.83 7.83h-57.05c-3.76 0-7.35-1.52-9.96-4.22l-3.49-3.6.01-.01Z" fill="#FFC741"/></g><path d="M31.55 352.12H8.77l-8.42-56.6h22.77l8.43 56.6ZM65.65 352.12H42.87L32.65 283.4h22.77l10.23 68.72Z" fill="#5E70FF"/><path d="M99.75 352.12H76.98L64.6 269h22.78l12.37 83.12ZM133.85 352.12h-22.77l-4.22-28.3h22.78l4.21 28.3Z" fill="#4C58C4"/><path d="M167.95 352.12h-22.77l-10.23-68.72h22.77l10.23 68.72ZM202.05 352.12h-22.77l-8.43-56.6h22.78l8.42 56.6Z" fill="#AD64F3"/></svg>