<?xml version="1.0" standalone="no"?>
<!DOCTYPE svg PUBLIC "-//W3C//DTD SVG 20010904//EN"
 "http://www.w3.org/TR/2001/REC-SVG-20010904/DTD/svg10.dtd">
<svg version="1.0" xmlns="http://www.w3.org/2000/svg"
 width="192.000000pt" height="192.000000pt" viewBox="0 0 192.000000 192.000000"
 preserveAspectRatio="xMidYMid meet">

<g transform="translate(0.000000,192.000000) scale(0.100000,-0.100000)"
fill="#000000" stroke="none">
<path d="M558 1514 c-5 -4 -8 -256 -8 -561 l0 -553 95 0 95 0 0 215 0 215 108
0 107 0 115 -215 115 -215 92 0 c90 0 93 1 93 23 0 12 -54 118 -119 236 l-119
215 42 26 c96 61 150 161 149 276 -1 160 -83 272 -234 319 -42 13 -108 18
-289 22 -129 3 -238 2 -242 -3z m488 -185 c127 -61 118 -259 -13 -315 -22 -10
-74 -14 -163 -14 l-130 0 0 175 0 175 132 0 c113 0 138 -3 174 -21z"/>
</g>
</svg>
